# xmcd CD database file
#
# Track frame offsets:
#	150
#	24631
#	45381
#	62234
#	83437
#	106074
#	123579
#
# Disc length: 1971 seconds
#
# Revision: 0
# Processed by: cddbd v1.5.2PL0 Copyright (c) Steve Scherf et al.
# Submitted via: CDex 1.70beta2
#
DISCID=4e07b107
DTITLE=詩月カオリ - SPYGLASS
DYEAR=2009
DGENRE=I've
TTITLE0=Spyglass
TTITLE1=Shining stars bless☆
TTITLE2=Chasse
TTITLE3=この空の下で
TTITLE4=Lemonade
TTITLE5=星の海
TTITLE6=Last song
EXTD=YEAR: 2009
EXTT0=
EXTT1=
EXTT2=
EXTT3=
EXTT4=
EXTT5=
EXTT6=
PLAYORDER=
